<?xml version="1.0" encoding="UTF-8"?>
<svg id="_Слой_1" xmlns="http://www.w3.org/2000/svg" version="1.1" viewBox="0 0 431 47.1">
  <!-- Generator: Adobe Illustrator 29.1.0, SVG Export Plug-In . SVG Version: 2.1.0 Build 142)  -->
  <defs>
    <style>
      .st0 {
        fill: #111;
      }
    </style>
  </defs>
  <g id="method">
    <path class="st0" d="M268.4,15.3c.6,0,1.1.2,1.5.6.4.4.6.9.6,1.5v11.3c0,.6-.2,1.1-.6,1.5s-.9.6-1.5.6h-4.6c-.6,0-1.1-.2-1.5-.6s-.6-.9-.6-1.5v-11.3c0-.6.2-1.1.6-1.5s.9-.6,1.5-.6h4.6Z"/>
    <path class="st0" d="M42.5.4c.6,0,1.1.2,1.5.6.4.4.6.9.6,1.5v41c0,.6-.2,1.1-.6,1.5s-.9.6-1.5.6h-4.7c-.6,0-1.1-.2-1.5-.6s-.6-.9-.6-1.5V15.9l-11.3,14.6c-.5.5-1,.8-1.7.8h0c-.3,0-.6,0-1-.2s-.6-.4-.7-.6L.8,3.9c-.2-.3-.4-.6-.4-1.1,0-.4,0-.8.2-1.2.2-.4.5-.6.8-.9.3-.2.7-.3,1.1-.3h5.4c.7,0,1.3.3,1.7.9l13,17.1L35.3,1.3c.5-.6,1-.9,1.8-.9h5.4Z"/>
    <path class="st0" d="M7.2,30.1c.6,0,1.1.2,1.5.6s.6.9.6,1.5v11.3c0,.6-.2,1.1-.6,1.5s-.9.6-1.5.6H2.5c-.6,0-1.1-.2-1.5-.6s-.6-.9-.6-1.5v-11.3c0-.6.2-1.1.6-1.5.4-.4.9-.6,1.5-.6h4.6Z"/>
    <path class="st0" d="M92.3,37c.6,0,1.1.2,1.5.6s.6,1,.6,1.6v4.5c0,.6-.2,1.1-.6,1.5s-.9.6-1.5.6h-30.2c-.6,0-1.1-.2-1.5-.6s-.6-.9-.6-1.5v-4.5c0-.6.2-1.1.6-1.6s.9-.6,1.5-.6h30.2Z"/>
    <path class="st0" d="M62,27.5c-.6,0-1.1-.2-1.5-.6s-.6-.9-.6-1.5v-4.6c0-.6.2-1.1.6-1.5s.9-.6,1.5-.6h27.5c.6,0,1.1.2,1.6.6s.6.9.6,1.5v4.6c0,.6-.2,1.1-.6,1.5s-.9.6-1.6.6c0,0-27.5,0-27.5,0Z"/>
    <path class="st0" d="M92.3.4c.6,0,1.1.2,1.5.6s.6.9.6,1.5v4.5c0,.6-.2,1.1-.6,1.6s-.9.6-1.5.6h-30.2c-.6,0-1.1-.2-1.5-.6s-.6-.9-.6-1.6V2.6c0-.6.2-1.1.6-1.5s.9-.6,1.5-.6h30.2Z"/>
    <path class="st0" d="M111.6.4c.6,0,1.1.2,1.6.6s.6,1,.6,1.6v4.5c0,.6-.2,1.1-.6,1.6s-.9.6-1.6.6h-6.3c-.6,0-1.1-.2-1.5-.6s-.6-.9-.6-1.6V2.7c0-.6.2-1.1.6-1.6s.9-.6,1.5-.6h6.3Z"/>
    <path class="st0" d="M138.9.4c.6,0,1.1.2,1.5.6s.6,1,.6,1.6v4.5c0,.6-.2,1.1-.6,1.6s-.9.6-1.5.6h-12.3v34.8c0,.6-.2,1.1-.6,1.5s-.9.6-1.5.6h-4.7c-.6,0-1.1-.2-1.6-.6s-.6-.9-.6-1.5V2.7c0-.6.2-1.1.6-1.6s.9-.6,1.6-.6h19.2Z"/>
    <path class="st0" d="M154.4,16.1c-.6,0-1.1-.2-1.5-.6s-.6-.9-.6-1.5V2.6c0-.6.2-1.1.6-1.5s.9-.6,1.5-.6h4.6c.6,0,1.1.2,1.5.6.4.4.6.9.6,1.5v11.4c0,.6-.2,1.1-.6,1.5s-.9.6-1.5.6h-4.6Z"/>
    <path class="st0" d="M187.6.4c.6,0,1.1.2,1.5.6s.6.9.6,1.5v41.1c0,.6-.2,1.1-.6,1.5s-.9.6-1.5.6h-4.6c-.6,0-1.1-.2-1.5-.6s-.6-.9-.6-1.5v-16.1h-19.6v16.1c0,.6-.2,1.1-.6,1.5s-.9.6-1.5.6h-4.6c-.6,0-1.1-.2-1.5-.6s-.6-.9-.6-1.5v-22.9c0-.6.2-1.1.6-1.5s.9-.6,1.5-.6h26.4V2.6c0-.6.2-1.1.6-1.5.4-.4.9-.6,1.5-.6h4.6,0Z"/>
    <path class="st0" d="M222.9.9c.5.4.7,1,.7,1.6v4.6c0,.5-.1,1-.5,1.4s-.7.6-1.2.8c-2.6.5-4.8,1.8-6.7,3.7-2.5,2.6-3.7,6-3.7,10.2s1.2,7.6,3.7,10.2c1.8,1.9,4.1,3.1,6.7,3.7.5.1.9.4,1.2.8s.5.8.5,1.4v4.6c0,.7-.2,1.2-.7,1.7-.4.3-.9.5-1.4.5h-.4c-4.7-.8-8.8-2.9-12.2-6.4-4.2-4.4-6.4-9.8-6.4-16.3s2.1-12,6.4-16.4c3.3-3.4,7.4-5.6,12.2-6.4.6-.1,1.2,0,1.8.4h0Z"/>
    <path class="st0" d="M242.1,6.9c4.2,4.4,6.4,9.9,6.4,16.4s-2.1,11.9-6.4,16.3c-3.4,3.5-7.4,5.7-12.2,6.4h-.4c-.5,0-1-.2-1.4-.5-.5-.5-.7-1-.7-1.7v-4.6c0-.5.1-1,.5-1.4.3-.4.7-.6,1.2-.8,2.6-.5,4.8-1.8,6.7-3.7,2.5-2.6,3.7-6.1,3.7-10.2s-1.2-7.6-3.7-10.2c-1.8-2-4.1-3.2-6.7-3.7-.5-.1-.9-.4-1.2-.8-.3-.4-.5-.8-.5-1.4V2.6c0-.7.2-1.2.8-1.6s1.1-.6,1.7-.4c4.8.8,8.9,2.9,12.2,6.4h0Z"/>
    <path class="st0" d="M288.5,2c2.5.9,4.7,2.5,6.7,4.5,4.3,4.3,6.4,9.8,6.4,16.6s-2.1,12.2-6.4,16.6c-2,2.1-4.2,3.6-6.7,4.5-2.6,1.1-5.2,1.6-7.9,1.6h-17.3c-.6,0-1.1-.2-1.5-.6s-.6-.9-.6-1.5v-4.4c0-.6.2-1.1.6-1.6.4-.4.9-.6,1.5-.6h17.1c3.6,0,6.6-1.3,8.8-4,2.3-2.6,3.4-6,3.4-10s-1.1-7.3-3.4-10c-2.3-2.7-5.2-4-8.8-4h-17.1c-.6,0-1.1-.2-1.5-.6s-.6-.9-.6-1.6V2.6c0-.6.2-1.1.6-1.5s.9-.6,1.5-.6h17.3c2.7,0,5.3.5,7.9,1.6h0Z"/>
  </g>
  <g id="do">
    <g>
      <path d="M336.2,30.8c-.5,0-1-.2-1.4-.6-.4-.4-.6-.9-.6-1.4v-11.3c0-.6.2-1.1.6-1.4.4-.4.9-.6,1.4-.6h4.6c.5,0,1,.2,1.4.6.4.4.6.9.6,1.4v11.3c0,.5-.2,1-.6,1.4-.4.4-.9.6-1.4.6h-4.6,0Z"/>
      <path d="M340.8,15.6c.5,0,.9.2,1.3.5.4.4.6.8.6,1.4v11.3c0,.5-.2.9-.6,1.3s-.8.6-1.3.6h-4.6c-.5,0-.9-.2-1.3-.6s-.6-.8-.6-1.3v-11.3c0-.5.2-1,.6-1.4.4-.4.8-.5,1.3-.5h4.6M340.8,15.4h-4.6c-.6,0-1.1.2-1.5.6-.4.4-.6.9-.6,1.5v11.3c0,.6.2,1.1.6,1.5.4.4.9.6,1.5.6h4.6c.6,0,1.1-.2,1.5-.6s.6-.9.6-1.5v-11.3c0-.6-.2-1.1-.6-1.5s-.9-.6-1.5-.6h0Z"/>
    </g>
    <g>
      <path d="M335.9,45.8c-.5,0-1-.2-1.4-.6s-.6-.9-.6-1.4v-4.4c0-.6.2-1.1.6-1.5s.9-.6,1.4-.6h17.1c3.6,0,6.7-1.3,8.9-4,2.3-2.7,3.4-6,3.4-10s-1.1-7.4-3.4-10.1c-2.3-2.7-5.3-4-8.9-4h-17.1c-.5,0-1-.2-1.4-.6s-.6-.9-.6-1.5V2.7c0-.5.2-1,.6-1.4.4-.4.9-.6,1.4-.6h17.3c2.7,0,5.3.5,7.9,1.6,2.5.9,4.7,2.4,6.7,4.5,4.2,4.3,6.4,9.8,6.4,16.5s-2.1,12.2-6.4,16.5c-2,2.1-4.2,3.6-6.7,4.5-2.5,1-5.2,1.6-7.9,1.6h-17.3Z"/>
      <path d="M353.2.8c2.6,0,5.3.5,7.8,1.6,2.4.9,4.7,2.4,6.6,4.5,4.2,4.3,6.4,9.8,6.4,16.4s-2.1,12.1-6.4,16.4c-2,2-4.2,3.5-6.6,4.5-2.5,1-5.1,1.6-7.8,1.6h-17.3c-.5,0-.9-.2-1.3-.6s-.6-.8-.6-1.3v-4.4c0-.5.2-1,.6-1.4s.8-.6,1.3-.6h17.1c3.7,0,6.7-1.4,9-4.1,2.3-2.7,3.5-6.1,3.5-10.1s-1.2-7.4-3.5-10.1c-2.3-2.7-5.3-4.1-9-4.1h-17.1c-.5,0-.9-.2-1.3-.6s-.6-.8-.6-1.4V2.7c0-.5.2-.9.6-1.3s.8-.6,1.3-.6h17.3M353.2.5h-17.3c-.6,0-1.1.2-1.5.6s-.6.9-.6,1.5v4.4c0,.6.2,1.1.6,1.6.4.4.9.6,1.5.6h17.1c3.6,0,6.6,1.3,8.8,4,2.3,2.6,3.4,6,3.4,10s-1.1,7.3-3.4,10c-2.3,2.7-5.2,4-8.8,4h-17.1c-.6,0-1.1.2-1.5.6s-.6,1-.6,1.6v4.4c0,.6.2,1.1.6,1.5.4.4.9.6,1.5.6h17.3c2.7,0,5.3-.5,7.9-1.6,2.5-.9,4.7-2.5,6.7-4.5,4.3-4.4,6.4-9.9,6.4-16.6s-2.1-12.2-6.4-16.5c-2-2.1-4.2-3.6-6.7-4.5-2.6-1.1-5.2-1.6-7.9-1.6h0Z"/>
    </g>
    <g>
      <path d="M411.5,46c-.5,0-.9-.2-1.3-.5-.5-.4-.7-.9-.7-1.5v-4.6c0-.5.1-.9.4-1.3.3-.4.7-.6,1.2-.7,2.6-.5,4.9-1.8,6.7-3.7,2.5-2.7,3.8-6.1,3.8-10.3s-1.3-7.6-3.8-10.3c-1.8-2-4.1-3.2-6.7-3.8-.5-.1-.9-.4-1.2-.7-.3-.4-.4-.8-.4-1.3V2.7c0-.7.2-1.2.7-1.5.4-.3.8-.4,1.2-.4s.3,0,.4,0c4.8.8,8.8,2.9,12.1,6.3,4.2,4.4,6.3,9.9,6.3,16.3s-2.1,11.9-6.3,16.2c-3.4,3.5-7.4,5.6-12.1,6.4h-.4Z"/>
      <path d="M411.4.8c.1,0,.3,0,.4,0,4.7.8,8.8,2.9,12,6.3,4.2,4.4,6.3,9.8,6.3,16.3s-2.1,11.8-6.3,16.1c-3.3,3.5-7.4,5.6-12,6.3h-.4c-.4,0-.9-.1-1.2-.4-.4-.4-.6-.9-.6-1.5v-4.6c0-.5.1-.9.4-1.2.3-.3.6-.6,1.1-.7,2.6-.5,4.9-1.8,6.8-3.8,2.5-2.7,3.8-6.2,3.8-10.4s-1.3-7.7-3.8-10.4c-1.9-2-4.1-3.3-6.8-3.8-.5-.1-.8-.3-1.1-.7s-.4-.7-.4-1.2V2.7c0-.6.2-1.1.7-1.5.4-.3.7-.4,1.1-.4M411.4.6c-.5,0-.9.2-1.3.5-.5.4-.8,1-.8,1.7v4.6c0,.5.1,1,.5,1.4s.7.6,1.2.8c2.6.5,4.8,1.8,6.7,3.7,2.5,2.6,3.7,6,3.7,10.2s-1.2,7.6-3.7,10.2c-1.8,1.9-4.1,3.1-6.7,3.7-.5.1-1,.4-1.2.8-.3.4-.5.8-.5,1.4v4.6c0,.7.2,1.2.7,1.7.5.3.9.5,1.4.5h.4c4.7-.8,8.8-2.9,12.2-6.4,4.2-4.4,6.4-9.8,6.4-16.3s-2.1-12-6.4-16.4c-3.3-3.4-7.4-5.6-12.2-6.4-.1,0-.3,0-.4,0h0Z"/>
    </g>
    <g>
      <path d="M403,46c-4.7-.8-8.7-2.9-12.1-6.4-4.2-4.3-6.3-9.8-6.3-16.2s2.1-11.9,6.3-16.3c3.3-3.4,7.3-5.5,12.1-6.3.1,0,.3,0,.4,0,.5,0,.9.2,1.3.4.5.4.7.9.7,1.5v4.6c0,.5-.1.9-.4,1.3s-.7.6-1.2.7c-2.6.5-4.9,1.8-6.7,3.8-2.5,2.6-3.8,6.1-3.8,10.3s1.3,7.7,3.8,10.3c1.9,1.9,4.1,3.2,6.7,3.7.5.1.9.4,1.2.7.3.4.4.8.4,1.3v4.6c0,.6-.2,1.1-.7,1.6-.4.3-.9.5-1.3.5h-.4Z"/>
      <path d="M403.4.8c.4,0,.8.1,1.2.4.4.4.6.8.6,1.5v4.6c0,.5-.1.9-.4,1.2-.3.3-.6.6-1.1.7-2.6.5-4.9,1.8-6.8,3.8-2.5,2.6-3.8,6.1-3.8,10.4s1.3,7.7,3.8,10.4c1.9,2,4.1,3.2,6.8,3.7.5.1.8.3,1.1.7s.4.8.4,1.2v4.6c0,.6-.2,1.1-.6,1.5-.4.3-.8.4-1.3.4h-.3c-4.7-.8-8.7-2.9-12-6.3-4.2-4.3-6.3-9.7-6.3-16.1s2.1-11.9,6.3-16.2c3.2-3.4,7.3-5.5,12-6.3.1,0,.3,0,.4,0M403.4.6c-.1,0-.3,0-.4,0-4.8.8-8.9,2.9-12.2,6.4-4.2,4.4-6.4,9.9-6.4,16.4s2.1,11.9,6.4,16.3c3.4,3.5,7.4,5.7,12.2,6.4h.4c.5,0,1-.2,1.4-.5.5-.5.7-1,.7-1.7v-4.6c0-.5-.1-1-.5-1.4s-.7-.6-1.2-.8c-2.6-.5-4.8-1.8-6.7-3.7-2.5-2.6-3.7-6.1-3.7-10.2s1.2-7.6,3.7-10.2c1.8-2,4.1-3.2,6.7-3.7.5-.1,1-.4,1.2-.8.3-.4.5-.8.5-1.4V2.7c0-.7-.2-1.2-.7-1.6-.4-.3-.9-.5-1.3-.5h0Z"/>
    </g>
  </g>
</svg>