<?xml version="1.0" encoding="UTF-8"?>
<svg id="_Слой_1" data-name="Слой 1" xmlns="http://www.w3.org/2000/svg" version="1.1" viewBox="0 0 431.03 47.07">
  <defs>
    <style>
      .cls-1 {
        fill: #fff;
        stroke-width: 0px;
      }
    </style>
  </defs>
  <g id="method">
    <path class="cls-1" d="M268.35,15.26c.57,0,1.07.2,1.5.61s.64.92.64,1.53v11.32c0,.57-.21,1.07-.64,1.5s-.93.64-1.5.64h-4.65c-.57,0-1.07-.21-1.5-.64s-.64-.93-.64-1.5v-11.32c0-.61.21-1.12.64-1.53s.93-.61,1.5-.61h4.65Z"/>
    <path class="cls-1" d="M42.45.44c.57,0,1.07.21,1.5.64.43.43.64.93.64,1.5v40.99c0,.57-.21,1.07-.64,1.5-.43.43-.93.64-1.5.64h-4.65c-.61,0-1.12-.21-1.53-.64s-.61-.93-.61-1.5V15.92l-11.32,14.56c-.45.53-1.02.8-1.71.8h0c-.33,0-.65-.07-.98-.21-.33-.14-.57-.36-.73-.64L.84,3.87c-.24-.29-.39-.64-.43-1.07-.04-.43.04-.82.24-1.16.2-.35.47-.63.8-.86.33-.22.69-.34,1.1-.34h5.38c.69,0,1.26.29,1.71.86l12.97,17.13L35.29,1.3c.45-.57,1.04-.86,1.77-.86,0,0,5.38,0,5.38,0Z"/>
    <path class="cls-1" d="M7.2,30.12c.57,0,1.07.2,1.5.61s.64.92.64,1.53v11.32c0,.57-.21,1.07-.64,1.5s-.93.64-1.5.64H2.55c-.57,0-1.07-.21-1.5-.64s-.64-.93-.64-1.5v-11.32c0-.61.21-1.12.64-1.53s.93-.61,1.5-.61h4.65Z"/>
    <path class="cls-1" d="M92.28,37.03c.61,0,1.12.21,1.53.64s.61.95.61,1.56v4.47c0,.57-.2,1.07-.61,1.5s-.92.64-1.53.64h-30.23c-.57,0-1.07-.21-1.5-.64s-.64-.93-.64-1.5v-4.47c0-.61.21-1.13.64-1.56.43-.43.93-.64,1.5-.64,0,0,30.23,0,30.23,0Z"/>
    <path class="cls-1" d="M62.05,27.55c-.57,0-1.07-.21-1.5-.64s-.64-.93-.64-1.5v-4.59c0-.57.21-1.07.64-1.5s.93-.64,1.5-.64h27.47c.61,0,1.13.21,1.56.64s.64.93.64,1.5v4.59c0,.57-.21,1.07-.64,1.5-.43.43-.95.64-1.56.64h-27.47Z"/>
    <path class="cls-1" d="M92.28.44c.61,0,1.12.21,1.53.64s.61.93.61,1.5v4.47c0,.61-.2,1.13-.61,1.56s-.92.64-1.53.64h-30.23c-.57,0-1.07-.21-1.5-.64s-.64-.95-.64-1.56V2.59c0-.57.21-1.07.64-1.5s.93-.64,1.5-.64c0,0,30.23,0,30.23,0Z"/>
    <path class="cls-1" d="M111.58.44c.61,0,1.13.21,1.56.64s.64.95.64,1.56v4.47c0,.61-.21,1.13-.64,1.56s-.95.64-1.56.64h-6.3c-.57,0-1.07-.21-1.5-.64s-.64-.95-.64-1.56V2.65c0-.61.21-1.13.64-1.56s.93-.64,1.5-.64h6.3Z"/>
    <path class="cls-1" d="M138.93.44c.57,0,1.07.21,1.5.64s.64.95.64,1.56v4.47c0,.61-.21,1.13-.64,1.56s-.93.64-1.5.64h-12.3v34.75c0,.57-.21,1.07-.64,1.5s-.93.64-1.5.64h-4.71c-.61,0-1.13-.21-1.56-.64s-.64-.93-.64-1.5V2.65c0-.61.21-1.13.64-1.56s.95-.64,1.56-.64h19.15Z"/>
    <path class="cls-1" d="M154.43,16.11c-.57,0-1.07-.21-1.5-.64s-.64-.93-.64-1.5V2.59c0-.57.21-1.07.64-1.5s.93-.64,1.5-.64h4.65c.61,0,1.12.21,1.53.64s.61.93.61,1.5v11.38c0,.57-.2,1.07-.61,1.5s-.92.64-1.53.64h-4.65Z"/>
    <path class="cls-1" d="M187.65.44c.57,0,1.07.21,1.5.64s.64.93.64,1.5v41.12c0,.57-.21,1.07-.64,1.5-.43.43-.93.64-1.5.64h-4.65c-.61,0-1.12-.21-1.53-.64s-.61-.93-.61-1.5v-16.15h-19.64v16.15c0,.57-.2,1.07-.61,1.5-.41.43-.92.64-1.53.64h-4.65c-.57,0-1.07-.21-1.5-.64-.43-.43-.64-.93-.64-1.5v-22.88c0-.57.21-1.07.64-1.5s.93-.64,1.5-.64h26.43V2.59c0-.57.2-1.07.61-1.5.41-.43.92-.64,1.53-.64h4.65Z"/>
    <path class="cls-1" d="M222.86.93c.49.41.73.96.73,1.65v4.59c0,.53-.15.99-.46,1.38s-.72.64-1.25.76c-2.61.53-4.83,1.77-6.67,3.73-2.49,2.61-3.73,6.01-3.73,10.19s1.24,7.6,3.73,10.25c1.84,1.92,4.06,3.14,6.67,3.67.53.12.95.38,1.25.76s.46.85.46,1.38v4.59c0,.65-.24,1.2-.73,1.65-.45.33-.92.49-1.41.49h-.37c-4.73-.78-8.79-2.92-12.18-6.42-4.24-4.36-6.36-9.8-6.36-16.31s2.12-11.98,6.36-16.43c3.3-3.43,7.36-5.55,12.18-6.36.65-.12,1.24.02,1.77.43Z"/>
    <path class="cls-1" d="M242.07,6.87c4.24,4.45,6.36,9.92,6.36,16.43s-2.12,11.94-6.36,16.31c-3.39,3.51-7.44,5.65-12.18,6.42h-.37c-.49,0-.96-.16-1.41-.49-.49-.45-.73-1-.73-1.65v-4.59c0-.53.15-.99.46-1.38.31-.39.72-.64,1.25-.76,2.61-.53,4.83-1.75,6.67-3.67,2.49-2.65,3.73-6.07,3.73-10.25s-1.24-7.58-3.73-10.19c-1.84-1.96-4.06-3.2-6.67-3.73-.53-.12-.95-.38-1.25-.76-.31-.39-.46-.85-.46-1.38V2.59c0-.69.25-1.24.76-1.65s1.09-.55,1.74-.43c4.81.82,8.87,2.94,12.18,6.36Z"/>
    <path class="cls-1" d="M288.54,2.03c2.49.94,4.73,2.45,6.73,4.53,4.28,4.32,6.42,9.84,6.42,16.55s-2.14,12.25-6.42,16.61c-2,2.08-4.24,3.59-6.73,4.53-2.57,1.06-5.2,1.59-7.89,1.59h-17.32c-.57,0-1.07-.21-1.5-.64s-.64-.93-.64-1.5v-4.41c0-.61.21-1.13.64-1.56.43-.43.93-.64,1.5-.64h17.13c3.63,0,6.58-1.33,8.84-3.98,2.26-2.65,3.4-5.98,3.4-9.97s-1.13-7.32-3.4-9.97c-2.26-2.65-5.21-3.98-8.84-3.98h-17.13c-.57,0-1.07-.21-1.5-.64-.43-.43-.64-.95-.64-1.56V2.59c0-.57.21-1.07.64-1.5s.93-.64,1.5-.64h17.32c2.69,0,5.32.53,7.89,1.59Z"/>
  </g>
  <g id="do">
    <g>
      <path class="cls-1" d="M336.16,30.83c-.54,0-1-.2-1.41-.61-.4-.4-.61-.88-.61-1.41v-11.32c0-.57.2-1.06.6-1.44.41-.39.87-.58,1.41-.58h4.65c.54,0,1.01.19,1.41.58.41.39.6.86.6,1.44v11.32c0,.53-.2,1.01-.61,1.41-.41.41-.87.61-1.41.61h-4.65Z"/>
      <path class="cls-1" d="M340.81,15.6c.51,0,.94.18,1.33.54.38.36.56.8.56,1.35v11.32c0,.51-.19.94-.57,1.32-.38.38-.82.57-1.32.57h-4.65c-.51,0-.94-.19-1.32-.57-.38-.38-.57-.82-.57-1.32v-11.32c0-.55.18-.99.56-1.35.38-.37.82-.54,1.33-.54h4.65M340.81,15.35h-4.65c-.57,0-1.07.2-1.5.61-.43.41-.64.92-.64,1.53v11.32c0,.57.21,1.07.64,1.5.43.43.93.64,1.5.64h4.65c.57,0,1.07-.21,1.5-.64.43-.43.64-.93.64-1.5v-11.32c0-.61-.21-1.12-.64-1.53s-.93-.61-1.5-.61h0Z"/>
    </g>
    <g>
      <path class="cls-1" d="M335.86,45.81c-.54,0-1-.2-1.41-.61-.41-.41-.61-.87-.61-1.41v-4.41c0-.57.2-1.07.61-1.47s.87-.61,1.41-.61h17.13c3.65,0,6.66-1.35,8.94-4.02,2.27-2.66,3.43-6.05,3.43-10.05s-1.15-7.39-3.43-10.05c-2.28-2.67-5.29-4.02-8.94-4.02h-17.13c-.54,0-1-.2-1.41-.61s-.61-.89-.61-1.47V2.68c0-.53.2-1.01.61-1.41.41-.41.87-.61,1.41-.61h17.32c2.66,0,5.3.53,7.85,1.58,2.46.93,4.71,2.44,6.69,4.5,4.24,4.28,6.39,9.82,6.39,16.46s-2.15,12.2-6.39,16.52c-1.98,2.06-4.23,3.57-6.69,4.5-2.55,1.05-5.19,1.58-7.85,1.58h-17.32Z"/>
      <path class="cls-1" d="M353.17.79c2.65,0,5.27.53,7.8,1.57,2.44.92,4.68,2.42,6.64,4.47,4.21,4.26,6.35,9.76,6.35,16.37s-2.14,12.14-6.35,16.44c-1.96,2.04-4.2,3.55-6.65,4.47-2.53,1.04-5.15,1.57-7.8,1.57h-17.32c-.51,0-.94-.19-1.32-.57-.38-.38-.57-.82-.57-1.32v-4.41c0-.55.19-1,.57-1.38.38-.38.82-.57,1.32-.57h17.13c3.69,0,6.73-1.37,9.03-4.06,2.29-2.69,3.46-6.1,3.46-10.14s-1.16-7.45-3.46-10.14c-2.3-2.7-5.34-4.06-9.03-4.06h-17.13c-.51,0-.94-.19-1.32-.57-.38-.38-.57-.84-.57-1.38V2.68c0-.51.19-.94.57-1.32.38-.38.82-.57,1.32-.57h17.32M353.17.54h-17.32c-.57,0-1.07.21-1.5.64-.43.43-.64.93-.64,1.5v4.41c0,.61.21,1.13.64,1.56.43.43.93.64,1.5.64h17.13c3.63,0,6.58,1.33,8.84,3.98,2.26,2.65,3.4,5.98,3.4,9.97s-1.13,7.32-3.4,9.97c-2.26,2.65-5.21,3.98-8.84,3.98h-17.13c-.57,0-1.07.21-1.5.64-.43.43-.64.95-.64,1.56v4.41c0,.57.21,1.07.64,1.5.43.43.93.64,1.5.64h17.32c2.69,0,5.32-.53,7.89-1.59,2.49-.94,4.73-2.45,6.73-4.53,4.28-4.36,6.42-9.9,6.42-16.61s-2.14-12.23-6.42-16.55c-2-2.08-4.24-3.59-6.73-4.53-2.57-1.06-5.2-1.59-7.89-1.59h0Z"/>
    </g>
    <g>
      <path class="cls-1" d="M411.45,45.99c-.46,0-.91-.16-1.33-.47-.46-.42-.68-.93-.68-1.55v-4.59c0-.5.15-.94.43-1.3.29-.36.68-.6,1.18-.72,2.62-.53,4.89-1.78,6.73-3.71,2.5-2.66,3.77-6.14,3.77-10.34s-1.27-7.65-3.77-10.27c-1.84-1.97-4.11-3.24-6.73-3.77-.5-.11-.89-.36-1.18-.72-.29-.36-.43-.8-.43-1.3V2.68c0-.66.23-1.17.72-1.55.37-.29.78-.44,1.23-.44.14,0,.27.01.42.04,4.77.81,8.84,2.94,12.11,6.33,4.2,4.4,6.33,9.9,6.33,16.34s-2.13,11.9-6.33,16.22c-3.35,3.47-7.42,5.62-12.1,6.39h-.36Z"/>
      <path class="cls-1" d="M411.37.8c.13,0,.26.01.4.04,4.74.8,8.79,2.92,12.04,6.29,4.18,4.38,6.29,9.85,6.29,16.26s-2.12,11.84-6.29,16.13c-3.33,3.45-7.38,5.59-12,6.35h-.37c-.44,0-.85-.14-1.24-.42-.44-.4-.65-.88-.65-1.47v-4.59c0-.48.13-.88.41-1.22.27-.34.64-.57,1.11-.67,2.65-.54,4.94-1.8,6.8-3.75,2.52-2.69,3.8-6.19,3.8-10.42s-1.28-7.71-3.8-10.36c-1.86-1.99-4.15-3.27-6.8-3.8-.48-.11-.84-.33-1.11-.68-.27-.35-.41-.74-.41-1.22V2.68c0-.62.22-1.1.67-1.46.35-.28.73-.42,1.15-.42M411.37.55c-.48,0-.91.16-1.3.47-.51.41-.76.96-.76,1.65v4.59c0,.53.15.99.46,1.38.31.39.72.64,1.25.76,2.61.53,4.83,1.77,6.67,3.73,2.49,2.61,3.73,6.01,3.73,10.19s-1.24,7.6-3.73,10.25c-1.84,1.92-4.06,3.14-6.67,3.67-.53.12-.95.38-1.25.76-.31.39-.46.85-.46,1.38v4.59c0,.65.24,1.2.73,1.65.45.33.92.49,1.41.49h.37c4.73-.78,8.79-2.92,12.18-6.42,4.24-4.36,6.36-9.8,6.36-16.31s-2.12-11.98-6.36-16.43c-3.3-3.43-7.36-5.55-12.18-6.36-.15-.03-.3-.04-.44-.04h0Z"/>
    </g>
    <g>
      <path class="cls-1" d="M403,45.99c-4.66-.77-8.74-2.91-12.09-6.39-4.2-4.32-6.33-9.78-6.33-16.22s2.13-11.94,6.33-16.34c3.27-3.39,7.34-5.52,12.11-6.33.15-.03.28-.04.42-.04.45,0,.87.15,1.26.44.46.38.69.89.69,1.55v4.59c0,.5-.15.94-.43,1.3s-.69.61-1.18.72c-2.62.53-4.89,1.8-6.73,3.77-2.5,2.62-3.77,6.08-3.77,10.27s1.27,7.67,3.77,10.33c1.85,1.93,4.11,3.17,6.74,3.71.5.11.89.36,1.18.72.29.36.43.8.43,1.3v4.59c0,.62-.23,1.13-.69,1.56-.41.3-.86.46-1.32.46h-.37Z"/>
      <path class="cls-1" d="M403.44.8c.43,0,.81.14,1.17.41.43.36.64.84.64,1.46v4.59c0,.48-.13.88-.41,1.22-.27.34-.64.57-1.11.67-2.65.54-4.94,1.82-6.8,3.8-2.52,2.65-3.8,6.13-3.8,10.36s1.28,7.73,3.8,10.42c1.86,1.95,4.15,3.21,6.79,3.74.48.11.84.33,1.11.68.27.35.41.75.41,1.22v4.59c0,.58-.21,1.06-.63,1.45-.41.3-.82.44-1.26.44h-.33c-4.66-.76-8.71-2.9-12.04-6.35-4.18-4.3-6.29-9.72-6.29-16.13s2.12-11.88,6.29-16.25c3.25-3.37,7.3-5.49,12.04-6.29.13-.03.27-.04.4-.04M403.44.55c-.14,0-.29.01-.44.04-4.81.82-8.87,2.94-12.18,6.36-4.24,4.45-6.36,9.92-6.36,16.43s2.12,11.94,6.36,16.31c3.39,3.51,7.44,5.65,12.18,6.42h.37c.49,0,.96-.16,1.41-.49.49-.45.73-1,.73-1.65v-4.59c0-.53-.15-.99-.46-1.38-.31-.39-.72-.64-1.25-.76-2.61-.53-4.83-1.75-6.67-3.67-2.49-2.65-3.73-6.07-3.73-10.25s1.24-7.58,3.73-10.19c1.84-1.96,4.06-3.2,6.67-3.73.53-.12.95-.38,1.25-.76.31-.39.46-.85.46-1.38V2.68c0-.69-.24-1.24-.73-1.65-.41-.31-.85-.47-1.33-.47h0Z"/>
    </g>
  </g>
</svg>